<svg xmlns="http://www.w3.org/2000/svg" xmlns:xlink="http://www.w3.org/1999/xlink" width="500" zoomAndPan="magnify" viewBox="0 0 375 374.999991" height="500" preserveAspectRatio="xMidYMid meet" version="1.0"><defs><clipPath id="a500af0207"><path d="M 67.664062 49 L 307.664062 49 L 307.664062 326 L 67.664062 326 Z M 67.664062 49 " clip-rule="nonzero"/></clipPath><clipPath id="fac9e75ff3"><path d="M 193 232 L 287 232 L 287 288 L 193 288 Z M 193 232 " clip-rule="nonzero"/></clipPath><clipPath id="337aa25958"><path d="M 286.136719 238.851562 L 200.085938 287.800781 L 193.78125 276.71875 L 279.832031 227.769531 Z M 286.136719 238.851562 " clip-rule="nonzero"/></clipPath><clipPath id="1969a5d6d8"><path d="M 186.574219 295.488281 L 286.316406 238.75 L 280.011719 227.667969 L 180.269531 284.40625 Z M 186.574219 295.488281 " clip-rule="nonzero"/></clipPath><clipPath id="2fb13c0963"><path d="M 184 236 L 271 236 L 271 297 L 184 297 Z M 184 236 " clip-rule="nonzero"/></clipPath><clipPath id="70db9fbd45"><path d="M 270.554688 247.625 L 184.5 296.574219 L 178.195312 285.492188 L 264.25 236.542969 Z M 270.554688 247.625 " clip-rule="nonzero"/></clipPath><clipPath id="2b04eaca5e"><path d="M 283.910156 240.027344 L 184.820312 296.394531 L 178.515625 285.3125 L 277.605469 228.945312 Z M 283.910156 240.027344 " clip-rule="nonzero"/></clipPath><clipPath id="452ae56e3f"><path d="M 192 83 L 285 83 L 285 140 L 192 140 Z M 192 83 " clip-rule="nonzero"/></clipPath><clipPath id="b4bec10f16"><path d="M 278.304688 144.027344 L 192.46875 94.707031 L 198.820312 83.648438 L 284.660156 132.972656 Z M 278.304688 144.027344 " clip-rule="nonzero"/></clipPath><clipPath id="5833b5114d"><path d="M 185.195312 76.160156 L 284.691406 133.328125 L 278.339844 144.382812 L 178.84375 87.214844 Z M 185.195312 76.160156 " clip-rule="nonzero"/></clipPath><clipPath id="80b12d21d4"><path d="M 183 75 L 270 75 L 270 136 L 183 136 Z M 183 75 " clip-rule="nonzero"/></clipPath><clipPath id="dec773e4c1"><path d="M 262.839844 135.046875 L 177.003906 85.726562 L 183.355469 74.671875 L 269.195312 123.992188 Z M 262.839844 135.046875 " clip-rule="nonzero"/></clipPath><clipPath id="8876da5fd4"><path d="M 282.34375 131.953125 L 183.496094 75.160156 L 177.144531 86.214844 L 275.992188 143.007812 Z M 282.34375 131.953125 " clip-rule="nonzero"/></clipPath></defs><g clip-path="url(#a500af0207)"><path fill="#e26400" d="M 190.761719 324.640625 L 304.5625 258.941406 C 306.550781 257.792969 307.777344 255.675781 307.777344 253.375 L 307.777344 121.96875 C 307.777344 119.671875 306.550781 117.550781 304.5625 116.402344 L 190.761719 50.699219 C 188.78125 49.546875 186.324219 49.546875 184.335938 50.699219 L 70.539062 116.402344 C 68.546875 117.550781 67.324219 119.671875 67.324219 121.96875 L 67.324219 253.375 C 67.324219 255.675781 68.546875 257.792969 70.539062 258.941406 L 184.335938 324.640625 C 186.324219 325.796875 188.773438 325.796875 190.761719 324.640625 Z M 80.175781 249.667969 L 80.175781 125.675781 L 187.550781 63.6875 L 294.925781 125.675781 L 294.925781 249.667969 L 187.550781 311.65625 Z M 80.175781 249.667969 " fill-opacity="1" fill-rule="nonzero"/></g><g clip-path="url(#fac9e75ff3)"><g clip-path="url(#337aa25958)"><g clip-path="url(#1969a5d6d8)"><path fill="#e26400" d="M 192.378906 290.191406 C 191.308594 289.710938 190.183594 289.199219 189.875 289.0625 C 189.566406 288.917969 187.332031 287.90625 184.902344 286.8125 C 182.46875 285.722656 180.492188 284.792969 180.496094 284.753906 C 180.535156 284.640625 220.898438 261.632812 247.195312 246.75 L 272.324219 232.519531 L 272.832031 232.753906 C 273.105469 232.878906 274.4375 233.480469 275.789062 234.085938 C 277.136719 234.695312 278.492188 235.308594 278.804688 235.449219 C 279.789062 235.898438 284.625 238.078125 285.359375 238.402344 C 285.75 238.574219 286.085938 238.75 286.105469 238.785156 C 286.125 238.820312 267.890625 249.230469 240.234375 264.960938 L 194.328125 291.074219 Z M 192.378906 290.191406 " fill-opacity="1" fill-rule="nonzero"/></g></g></g><g clip-path="url(#2fb13c0963)"><g clip-path="url(#70db9fbd45)"><g clip-path="url(#2b04eaca5e)"><path fill="#e26400" d="M 276.429688 242.300781 C 276.5625 241.140625 276.695312 239.914062 276.734375 239.582031 C 276.769531 239.242188 277.039062 236.816406 277.339844 234.183594 C 277.644531 231.546875 277.855469 229.382812 277.820312 229.367188 C 277.703125 229.34375 237.488281 252.175781 211.375 267.101562 L 186.414062 281.363281 L 186.355469 281.914062 C 186.324219 282.214844 186.160156 283.660156 185.992188 285.125 C 185.828125 286.585938 185.664062 288.058594 185.628906 288.398438 C 185.507812 289.46875 184.914062 294.714844 184.820312 295.507812 C 184.765625 295.929688 184.746094 296.308594 184.765625 296.34375 C 184.785156 296.375 202.96875 286.070312 230.5 270.410156 L 276.191406 244.417969 Z M 276.429688 242.300781 " fill-opacity="1" fill-rule="nonzero"/></g></g></g><g clip-path="url(#452ae56e3f)"><g clip-path="url(#b4bec10f16)"><g clip-path="url(#5833b5114d)"><path fill="#e26400" d="M 190.976562 81.480469 C 189.90625 81.957031 188.777344 82.464844 188.46875 82.601562 C 188.15625 82.742188 185.917969 83.746094 183.484375 84.828125 C 181.046875 85.90625 179.066406 86.828125 179.070312 86.867188 C 179.109375 86.980469 219.371094 110.160156 245.605469 125.160156 L 270.671875 139.5 L 271.179688 139.265625 C 271.457031 139.140625 272.789062 138.546875 274.144531 137.949219 C 275.492188 137.34375 276.851562 136.738281 277.164062 136.59375 C 278.152344 136.152344 282.996094 133.992188 283.730469 133.671875 C 284.125 133.5 284.460938 133.328125 284.480469 133.292969 C 284.5 133.257812 266.308594 122.769531 238.722656 106.917969 L 192.929688 80.609375 Z M 190.976562 81.480469 " fill-opacity="1" fill-rule="nonzero"/></g></g></g><g clip-path="url(#80b12d21d4)"><g clip-path="url(#dec773e4c1)"><g clip-path="url(#8876da5fd4)"><path fill="#e26400" d="M 274.871094 129.648438 C 275 130.808594 275.125 132.035156 275.164062 132.367188 C 275.199219 132.707031 275.457031 135.132812 275.746094 137.769531 C 276.042969 140.40625 276.242188 142.570312 276.207031 142.585938 C 276.089844 142.613281 235.972656 119.605469 209.925781 104.566406 L 185.027344 90.199219 L 184.96875 89.644531 C 184.941406 89.34375 184.785156 87.898438 184.621094 86.433594 C 184.464844 84.972656 184.304688 83.5 184.269531 83.160156 C 184.15625 82.085938 183.585938 76.839844 183.492188 76.046875 C 183.441406 75.625 183.421875 75.246094 183.441406 75.210938 C 183.460938 75.175781 201.601562 85.5625 229.0625 101.34375 L 274.640625 127.53125 Z M 274.871094 129.648438 " fill-opacity="1" fill-rule="nonzero"/></g></g></g></svg>